<svg width="16" height="14" viewBox="0 0 16 14" fill="none" xmlns="http://www.w3.org/2000/svg">
<path d="M14.7891 6.89063L8.35313 0.459376C8.30679 0.412945 8.25175 0.376108 8.19115 0.350975C8.13056 0.325841 8.0656 0.312904 8 0.312904C7.9344 0.312904 7.86945 0.325841 7.80885 0.350975C7.74826 0.376108 7.69322 0.412945 7.64688 0.459376L1.21094 6.89063C1.02344 7.07813 0.917191 7.33281 0.917191 7.59844C0.917191 8.15 1.36563 8.59844 1.91719 8.59844H2.59532V13.1875C2.59532 13.4641 2.81875 13.6875 3.09532 13.6875H7V10.1875H8.75V13.6875H12.9047C13.1813 13.6875 13.4047 13.4641 13.4047 13.1875V8.59844H14.0828C14.3484 8.59844 14.6031 8.49375 14.7906 8.30469C15.1797 7.91406 15.1797 7.28125 14.7891 6.89063V6.89063Z" fill="black"/>
</svg>
